<svg width="256" height="256" viewBox="0 0 256 256" fill="none" xmlns="http://www.w3.org/2000/svg">
  <defs>
    <linearGradient id="brand-grad" x1="32" y1="32" x2="224" y2="224" gradientUnits="userSpaceOnUse">
      <stop stop-color="#00F0FF"/>
      <stop offset="1" stop-color="#A855F7"/>
    </linearGradient>
    <filter id="soft-glow" x="-20%" y="-20%" width="140%" height="140%">
      <feGaussianBlur stdDeviation="6" result="blur"/>
      <feComposite in="SourceGraphic" in2="blur" operator="over"/>
    </filter>
  </defs>
  
  <!-- Outer Hexagon Frame -->
  <path d="M128 20L40 70V186L128 236L216 186V70L128 20Z" 
        stroke="url(#brand-grad)" stroke-width="8" stroke-linejoin="round" 
        filter="url(#soft-glow)"/>
        
  <!-- Secondary Inner Hexagon -->
  <path d="M128 50L66 85V171L128 206L190 171V85L128 50Z" 
        fill="url(#brand-grad)" fill-opacity="0.05" 
        stroke="url(#brand-grad)" stroke-width="2" stroke-dasharray="8 4"/>
        
  <!-- Core Icon: Stylized 'A' -->
  <path d="M128 80L90 160H105L128 110L151 160H166L128 80Z" fill="url(#brand-grad)"/>
  
  <!-- Center I-Node -->
  <circle cx="128" cy="132" r="14" fill="#020617" stroke="url(#brand-grad)" stroke-width="3"/>
  <circle cx="128" cy="132" r="5" fill="url(#brand-grad)"/>
  
  <!-- Connection Points -->
  <circle cx="128" cy="20" r="6" fill="#00F0FF"/>
  <circle cx="40" cy="70" r="6" fill="#00F0FF"/>
  <circle cx="40" cy="186" r="6" fill="#00F0FF"/>
  <circle cx="216" cy="70" r="6" fill="#A855F7"/>
  <circle cx="216" cy="186" r="6" fill="#A855F7"/>
  <circle cx="128" cy="236" r="6" fill="#A855F7"/>
</svg>
